<svg width="18" height="20" viewBox="0 0 18 20" fill="none" xmlns="http://www.w3.org/2000/svg">

    <style>
        @media (prefers-color-scheme: dark) {
            .background { fill: transparent; }
            .yellow { fill: white; }
            .green { fill: white; }
        }
    </style>

    <rect class="background" width="18" height="20" rx="2" />

    <g clip-path="url(#clip0_76_15)">
        <path class="yellow" fill="#F7C81E" d="M13.8706 4.70654C14.3739 5.16109 14.5343 5.74758 14.5057 6.41676C14.4837 6.93086 14.5745 7.43553 14.7644 7.90678C16.1623 11.3842 14.7868 15.679 11.9085 17.9736C9.72755 19.7125 7.29369 20.3496 4.58498 19.8179C3.98678 19.7005 3.41013 19.7057 2.80944 19.8355C1.17195 20.1898 0.0393827 19.0875 0.308844 17.3755C0.450207 16.4776 0.222616 15.6392 0.0965913 14.7841C-0.628052 9.87448 2.81898 4.997 7.5818 4.21301C8.85698 4.00309 10.1205 4.02622 11.3692 4.39166C11.8517 4.53303 12.3417 4.56559 12.828 4.45335C13.1659 4.37495 13.4648 4.41265 13.7525 4.60072C13.7918 4.63585 13.8312 4.67141 13.8706 4.70654Z"/>
        <path class="green" fill="#2F7657" d="M13.8706 4.70653C13.8312 4.6714 13.7918 4.63584 13.7525 4.60071C14.1811 4.17101 14.6094 3.74131 15.038 3.31119C15.0583 3.27606 15.1039 3.22251 15.0944 3.2088C15.0546 3.15011 14.9961 3.1741 14.9431 3.19894C13.4639 3.54125 11.979 3.71689 10.463 3.46156C9.53768 3.30605 8.77034 2.90462 8.22229 2.10692C7.87573 1.60225 7.55942 1.07488 7.20497 0.575775C6.98526 0.266033 7.11626 0.181636 7.40106 0.120802C8.76039 -0.169234 10.0285 0.0612522 11.2034 0.822541C11.7647 1.18626 12.2829 1.60953 12.7754 2.06708C13.0958 2.3644 13.4179 2.66171 13.7993 2.87421C14.5559 3.29577 15.3423 3.07813 15.7958 2.32755C15.8883 2.17461 15.9724 2.01695 16.1121 1.76976C16.1225 1.93684 16.1432 1.99125 16.1254 2.0221C15.6934 2.77225 15.9919 3.34161 16.4856 3.93239C17.9838 5.72572 18.3449 7.77824 17.6771 10.0343C17.641 10.1555 17.602 10.2759 17.5568 10.3937C17.5291 10.4661 17.4876 10.5334 17.4408 10.625C16.0889 8.3099 14.8303 5.99948 15.6963 3.15696C15.7187 3.08327 15.7199 3.00316 15.6971 2.89777C15.1371 3.56095 14.4929 4.12174 13.869 4.7061L13.8706 4.70653Z"/>
    </g>

    <defs>
        <clipPath id="clip0_76_15">
            <rect width="18" height="20" fill="white"/>
        </clipPath>
    </defs>

</svg>